<svg xmlns="http://www.w3.org/2000/svg" viewBox="0 0 64 64" id="list">
  <path fill="#222" d="M31.544 12.932a1.5 1.5 0 0 1 1.5-1.5h18.87a1.5 1.5 0 0 1 0 3h-18.87a1.5 1.5 0 0 1-1.5-1.5Zm20.37 4.841h-22.87a1.5 1.5 0 0 0 0 3h22.87a1.5 1.5 0 0 0 0-3Zm0 10.727h-18.87a1.5 1.5 0 1 0 0 3h18.87a1.5 1.5 0 0 0 0-3Zm0 6.343h-22.87a1.5 1.5 0 1 0 0 3h22.87a1.5 1.5 0 0 0 0-3ZM20.77 26.16h-8.68a1.5 1.5 0 0 0-1.5 1.5v8.68a1.5 1.5 0 0 0 1.5 1.5h8.68a1.5 1.5 0 0 0 1.5-1.5v-8.68a1.5 1.5 0 0 0-1.5-1.5Zm0-17.07h-8.68a1.5 1.5 0 0 0-1.5 1.5v8.68a1.5 1.5 0 0 0 1.5 1.5h8.68a1.5 1.5 0 0 0 1.5-1.5v-8.68a1.5 1.5 0 0 0-1.5-1.5Zm0 34.14h-8.68a1.5 1.5 0 0 0-1.5 1.5v8.68a1.5 1.5 0 0 0 1.5 1.5h8.68a1.5 1.5 0 0 0 1.5-1.5v-8.68a1.5 1.5 0 0 0-1.5-1.5Zm31.144 2.338h-18.87a1.5 1.5 0 1 0 0 3h18.87a1.5 1.5 0 0 0 0-3Zm0 6.343h-22.87a1.5 1.5 0 1 0 0 3h22.87a1.5 1.5 0 0 0 0-3Z"></path>
</svg>